<?xml version="1.0" encoding="UTF-8"?>
<svg width="34px" height="34px" viewBox="0 0 34 34" version="1.1" xmlns="http://www.w3.org/2000/svg" xmlns:xlink="http://www.w3.org/1999/xlink">
    <!-- Generator: Sketch 50.2 (55047) - http://www.bohemiancoding.com/sketch -->
    <title>Group</title>
    <desc>Created with Sketch.</desc>
    <defs></defs>
    <g id="Page" stroke="none" stroke-width="1" fill="none" fill-rule="evenodd">
        <g id="signal.twilio.com" transform="translate(-450.000000, -5767.000000)" fill="#FFFFFF">
            <g id="footer" transform="translate(198.000000, 5410.000000)">
                <g id="Group" transform="translate(252.000000, 357.000000)">
                    <path d="M17,29.5196616 C10.0855642,29.5196616 4.4800788,23.9144358 4.4800788,17 C4.4800788,10.0855642 10.0855642,4.4800788 17,4.4800788 C23.9144358,4.4800788 29.5199212,10.0855642 29.5199212,17 C29.5199212,23.9144358 23.9144358,29.5196616 17,29.5196616 M17,0 C7.61096773,0 0,7.61096773 0,17 C0,26.3887727 7.61096773,34 17,34 C26.3887727,34 34,26.3887727 34,17 C34,7.61096773 26.3887727,0 17,0" id="Fill-4"></path>
                    <path d="M17.5151515,12.8787879 C17.5151515,10.8871915 19.1296158,9.27272727 21.1212121,9.27272727 C23.1128085,9.27272727 24.7272727,10.8871915 24.7272727,12.8787879 C24.7272727,14.8703842 23.1128085,16.4848485 21.1212121,16.4848485 C19.1296158,16.4848485 17.5151515,14.8703842 17.5151515,12.8787879" id="Fill-7"></path>
                    <path d="M21.1212121,17.5151515 C23.1128085,17.5151515 24.7272727,19.1296158 24.7272727,21.1212121 C24.7272727,23.1128085 23.1128085,24.7272727 21.1212121,24.7272727 C19.1296158,24.7272727 17.5151515,23.1128085 17.5151515,21.1212121 C17.5151515,19.1296158 19.1296158,17.5151515 21.1212121,17.5151515 Z" id="Fill-9"></path>
                    <path d="M9.27272727,21.1212121 C9.27272727,19.1296158 10.8871915,17.5151515 12.8787879,17.5151515 C14.8703842,17.5151515 16.4848485,19.1296158 16.4848485,21.1212121 C16.4848485,23.1128085 14.8703842,24.7272727 12.8787879,24.7272727 C10.8871915,24.7272727 9.27272727,23.1128085 9.27272727,21.1212121" id="Fill-11"></path>
                    <path d="M9.27272727,12.8787879 C9.27272727,10.8871915 10.8871915,9.27272727 12.8787879,9.27272727 C14.8703842,9.27272727 16.4848485,10.8871915 16.4848485,12.8787879 C16.4848485,14.8703842 14.8703842,16.4848485 12.8787879,16.4848485 C10.8871915,16.4848485 9.27272727,14.8703842 9.27272727,12.8787879" id="Fill-13"></path>
                </g>
            </g>
        </g>
    </g>
</svg>